<svg 
 xmlns="http://www.w3.org/2000/svg"
 xmlns:xlink="http://www.w3.org/1999/xlink"
 width="100px" height="96px">
<path fill-rule="evenodd"  fill="rgb(0, 186, 255)"
 d="M99.990,96.000 L92.000,96.000 L8.000,96.000 L0.000,96.000 L-0.010,96.000 L-0.010,88.000 L0.000,88.000 L0.000,38.000 L0.000,32.000 L0.000,8.000 L-0.010,8.000 L-0.010,0.000 L0.000,0.000 L8.000,0.000 L92.000,0.000 L99.990,0.000 L100.000,0.000 L100.000,32.000 L100.000,38.000 L100.000,96.000 L99.990,96.000 ZM92.000,8.000 L8.000,8.000 L8.000,32.000 L92.000,32.000 L92.000,8.000 ZM92.000,38.000 L8.000,38.000 L8.000,88.000 L92.000,88.000 L92.000,38.000 ZM74.000,47.000 L74.000,53.000 L23.000,53.000 L23.000,47.000 L74.000,47.000 ZM74.000,66.000 L23.000,66.000 L23.000,60.000 L74.000,60.000 L74.000,66.000 ZM74.000,78.000 L23.000,78.000 L23.000,72.000 L74.000,72.000 L74.000,78.000 ZM68.343,11.569 L74.789,18.015 L80.798,12.007 L84.993,16.202 L75.203,25.993 L74.461,25.251 L74.000,25.711 L64.101,15.812 L68.343,11.569 Z"/>
</svg>
